<svg width="372" height="92" viewBox="0 0 372 92" fill="none" xmlns="http://www.w3.org/2000/svg">
  <g fill="#B8902E">
    <path d="M45.684 6 63 15.768 68.792 31 57.536 51.43 36.751 62 19.39 31 25.208 15.768 45.684 6Zm0 5.685-14.85 8.43-3.566 9.352 8.12 14.49 10.296-16.227 13.766 1.455 2.42-6.78-16.186-10.72Zm7.853 36.11 7.68-13.658-11.704 1.322 4.024 12.336Zm-16.278-2.41 4.338-13.438-12.02-1.256 7.682 14.694Zm9.047 7.592 3.85-10.973-8.07-1.124 4.22 12.097Zm1.257-21.687 9.994-1.058-9.994-6.615-9.994 6.615 9.994 1.058Z"/>
    <path d="M104.178 67V63.758L123.852 33.772H104.61V28.75H132.714V31.992L113.04 61.978H132.93V67H104.178Z"/>
    <path d="M137.941 67V28.75H144.749V67H137.941Z"/>
    <path d="M153.301 67V28.75H159.029L180.247 56.524V28.75H186.947V67H181.543L160.001 38.686V67H153.301Z"/>
    <path d="M193.928 47.902C193.928 35.824 202.244 28.102 214.214 28.102C220.266 28.102 225.348 30.37 228.644 34.206L223.946 37.61C221.57 34.962 218.49 33.556 214.538 33.556C206.816 33.556 200.952 38.854 200.952 47.902C200.952 56.95 206.816 62.248 214.592 62.248C218.382 62.248 221.732 60.788 224.108 58.086L228.806 61.49C225.456 65.38 220.32 67.648 214.16 67.648C202.19 67.648 193.928 59.926 193.928 47.902Z"/>
    <path d="M234.283 67V28.75H261.841V33.718H241.091V44.942H259.577V49.856H241.091V62.032H262.597V67H234.283Z"/>
    <path d="M56.03 82.89v-2.16h10.116v2.16H62.07V95h-2.016V82.89H56.03Z"/>
    <path d="M78.192 87.946c0 4.32-2.646 7.29-6.588 7.29-3.96 0-6.606-2.97-6.606-7.29 0-4.302 2.646-7.29 6.606-7.29 3.942 0 6.588 2.988 6.588 7.29Zm-11.124 0c0 3.294 1.8 5.526 4.536 5.526 2.718 0 4.5-2.232 4.5-5.526 0-3.276-1.782-5.526-4.5-5.526-2.736 0-4.536 2.25-4.536 5.526Z"/>
    <path d="M79.794 95V80.73h5.058c3.132 0 5.004 1.728 5.004 4.644S87.984 90 84.852 90H81.81v5h-2.016Zm2.016-6.75h2.52c2.268 0 3.456-.972 3.456-2.876 0-1.89-1.188-2.88-3.456-2.88h-2.52v5.756Z"/>
    <path d="M105.005 87.946c0 4.32-2.646 7.29-6.588 7.29-3.96 0-6.606-2.97-6.606-7.29 0-4.302 2.646-7.29 6.606-7.29 3.942 0 6.588 2.988 6.588 7.29Zm-11.124 0c0 3.294 1.8 5.526 4.536 5.526 2.718 0 4.5-2.232 4.5-5.526 0-3.276-1.782-5.526-4.5-5.526-2.736 0-4.536 2.25-4.536 5.526Z"/>
    <path d="M107.147 95V80.73h2.016v12.51h6.516V95h-8.532Z"/>
    <path d="M127.842 87.946c0 4.32-2.646 7.29-6.588 7.29-3.96 0-6.606-2.97-6.606-7.29 0-4.302 2.646-7.29 6.606-7.29 3.942 0 6.588 2.988 6.588 7.29Zm-11.124 0c0 3.294 1.8 5.526 4.536 5.526 2.718 0 4.5-2.232 4.5-5.526 0-3.276-1.782-5.526-4.5-5.526-2.736 0-4.536 2.25-4.536 5.526Z"/>
    <path d="M137.137 87.676h5.832v5.004c-1.278 1.566-3.456 2.556-5.922 2.556-4.212 0-6.984-2.934-6.984-7.29 0-4.284 2.79-7.29 6.804-7.29 2.682 0 4.788 1.044 5.94 2.934l-1.62 1.17c-.972-1.458-2.358-2.214-4.338-2.214-2.808 0-4.716 2.196-4.716 5.4 0 3.24 1.926 5.454 4.842 5.454 1.53 0 2.88-.486 3.978-1.458v-2.502h-3.816v-1.764Z"/>
    <path d="M146.031 95V80.73h2.016V95h-2.016Z"/>
    <path d="M151.515 95V80.73h8.91v1.764h-6.894v4.248h6.39v1.728h-6.39v4.764h7.128V95h-9.144Z"/>
    <path d="M162.184 91.418h1.98c.108 1.278 1.386 2.16 3.204 2.16 1.854 0 3.096-.9 3.096-2.25 0-1.098-.774-1.764-2.61-2.214l-1.836-.45c-2.61-.63-3.816-1.818-3.816-3.762 0-2.412 2.106-4.086 5.112-4.086 2.97 0 5.004 1.692 5.058 4.104h-1.926c-.144-1.296-1.206-2.088-3.15-2.088-1.728 0-2.898.828-2.898 2.106 0 1.008.756 1.602 2.574 2.052l1.566.396c2.916.684 4.122 1.836 4.122 3.888 0 2.61-2.088 4.32-5.4 4.32-3.114 0-5.256-1.638-5.292-4.176Z"/>
  </g>
</svg>