<svg xmlns="http://www.w3.org/2000/svg" viewBox="-63.07 -9.12 2095.15 906.31" fill="#000000" role="img" aria-label="Zona Dorata Italia"><path d="M 889.0,33.09999999999991 C 886.0,33.59999999999991 882.4,34.399999999999864 881.0,34.89999999999998 C 878.8,35.69999999999993 873.0,37.39999999999998 860.5,41.0 C 858.3,41.60000000000002 852.5,43.200000000000045 847.5,44.5 C 842.6,45.799999999999955 834.9,47.799999999999955 830.5,49.0 C 826.1,50.200000000000045 818.2,52.299999999999955 813.0,53.69999999999993 C 807.8,55.09999999999991 801.0,56.69999999999993 798.0,57.299999999999955 C 791.0,58.59999999999991 785.5,62.0 784.6,65.69999999999993 C 784.2,67.19999999999993 783.1,69.59999999999991 782.2,71.0 C 781.3000000000001,72.39999999999998 779.4000000000001,75.60000000000002 778.0,78.19999999999993 C 772.7,88.19999999999993 765.9,100.59999999999991 765.0,102.0 C 764.5,102.79999999999995 761.1,108.89999999999998 757.4000000000001,115.5 C 753.7,122.10000000000002 749.8000000000001,128.39999999999998 748.9000000000001,129.5 C 747.9000000000001,130.60000000000002 746.4000000000001,133.10000000000002 745.6,135.0999999999999 C 742.5,142.39999999999986 743.8000000000001,144.19999999999993 769.0,169.0 C 792.9,192.5 830.1,228.5 835.4000000000001,233.29999999999995 C 837.1000000000001,234.79999999999995 844.2,241.5 851.2,248.29999999999995 C 858.2,255.0 872.3000000000001,268.5999999999999 882.6,278.5 C 906.4,301.29999999999995 937.6,331.6 950.4000000000001,344.19999999999993 C 960.3000000000001,353.9999999999999 963.1000000000001,355.69999999999993 966.8000000000001,354.6 C 967.9000000000001,354.20000000000005 973.7,349.1 979.7,343.19999999999993 C 985.7,337.29999999999995 1000.9000000000001,322.5999999999999 1013.5,310.5 C 1026.0,298.4 1039.1,285.79999999999995 1042.4,282.4 C 1045.8000000000002,279.0 1051.0,274.1 1054.0,271.5 C 1057.0,268.9 1069.9,256.5 1082.6000000000001,244.0999999999999 C 1095.3000000000002,231.69999999999993 1109.9,217.4999999999999 1115.1000000000001,212.5999999999999 C 1120.3000000000002,207.69999999999993 1132.8000000000002,195.4999999999999 1143.0,185.39999999999998 C 1153.2,175.39999999999998 1166.1,163.29999999999995 1171.5,158.5 C 1184.0,147.70000000000005 1187.3,143.5 1186.6000000000001,139.69999999999993 C 1186.3000000000002,138.0999999999999 1183.6000000000001,133.19999999999993 1180.7,128.69999999999993 C 1177.8,124.19999999999993 1172.9,116.39999999999998 1169.8,111.5 C 1160.3999999999999,96.10000000000002 1146.3999999999999,73.10000000000002 1142.4,66.39999999999998 C 1139.0,60.69999999999993 1136.8000000000002,59.10000000000002 1131.0,58.0 C 1128.0,57.5 1121.5,55.799999999999955 1116.5,54.39999999999998 C 1111.6,53.0 1104.1,50.89999999999998 1100.0,49.799999999999955 C 1095.9,48.69999999999993 1089.6,46.89999999999998 1086.1000000000001,45.89999999999998 C 1082.6000000000001,44.799999999999955 1078.5000000000002,44.0 1077.1000000000001,44.0 C 1075.6000000000001,44.0 1073.6000000000001,43.39999999999998 1072.5,42.59999999999991 C 1071.4,41.899999999999864 1068.5,40.999999999999886 1066.0,40.59999999999991 C 1059.7,39.69999999999993 1043.0,35.09999999999991 1039.8,33.39999999999998 C 1037.6,32.19999999999993 1024.8999999999999,32.0 965.8000000000001,32.09999999999991 C 926.6,32.19999999999993 892.0000000000001,32.59999999999991 889.0,33.09999999999991 M 1034.4,48.0 C 1036.7,48.39999999999998 1039.9,49.299999999999955 1041.5,49.799999999999955 C 1043.2,50.39999999999998 1049.9,52.299999999999955 1056.5,54.0 C 1063.1,55.799999999999955 1069.6,57.60000000000002 1071.0,58.0 C 1073.3,58.799999999999955 1078.8,60.299999999999955 1089.8,63.0 C 1094.0,64.10000000000002 1095.3,66.10000000000002 1092.8,67.59999999999991 C 1091.3,68.49999999999989 1073.6,73.59999999999991 1067.0,75.09999999999991 C 1064.5,75.59999999999991 1058.2,76.99999999999989 1053.0,78.09999999999991 C 1047.8,79.29999999999995 1040.8,80.89999999999986 1037.5,81.69999999999993 C 1034.2,82.59999999999991 1028.8,83.79999999999995 1025.5,84.5 C 1022.2,85.20000000000005 1016.1,86.60000000000002 1012.0,87.69999999999993 C 1007.9,88.79999999999995 999.1,90.89999999999998 992.5,92.39999999999998 C 985.9,93.89999999999998 978.4,95.79999999999995 975.9000000000001,96.59999999999991 C 967.5000000000001,99.09999999999991 952.5000000000001,97.79999999999995 942.8000000000001,93.59999999999991 C 940.7,92.69999999999993 938.1,91.99999999999989 937.0,92.0 C 935.8,92.0 930.8,90.79999999999995 925.7,89.39999999999998 C 917.0,87.0 913.5,86.0 901.5,83.0 C 894.3,81.20000000000005 880.3,78.10000000000002 874.5,76.89999999999998 C 865.5,75.19999999999993 851.6,71.79999999999995 848.0,70.5 C 846.1,69.70000000000005 842.6,68.89999999999998 840.2,68.69999999999993 C 837.9000000000001,68.39999999999998 835.2,67.59999999999991 834.4000000000001,66.89999999999998 C 833.0000000000001,65.69999999999993 833.0000000000001,65.39999999999998 835.0,63.799999999999955 C 836.2,62.89999999999998 838.8,61.799999999999955 840.8000000000001,61.5 C 842.8000000000001,61.200000000000045 845.9000000000001,60.299999999999955 847.5,59.5 C 851.8,57.60000000000002 873.2,51.0 875.4000000000001,51.0 C 876.3000000000001,51.0 878.1000000000001,50.5 879.3000000000001,49.799999999999955 C 885.5000000000001,46.5 891.8000000000001,46.299999999999955 961.4000000000001,46.69999999999993 C 999.4000000000001,46.89999999999998 1032.2,47.499999999999886 1034.4,47.999999999999886 M 1141.8,95.79999999999995 C 1146.8999999999999,103.29999999999995 1152.3999999999999,111.69999999999993 1154.2,114.5 C 1155.9,117.20000000000005 1158.6000000000001,121.39999999999998 1160.2,123.79999999999995 C 1161.7,126.19999999999993 1163.7,129.39999999999998 1164.5,131.0 C 1165.9,133.79999999999995 1165.9,134.0 1163.8,135.39999999999998 C 1160.3999999999999,137.60000000000002 1152.1,139.79999999999995 1113.0,149.39999999999998 C 1102.8,151.79999999999995 1090.0,154.79999999999995 1084.5,156.0 C 1079.0,157.20000000000005 1073.7,158.60000000000002 1072.8,159.0999999999999 C 1070.3,160.39999999999986 1068.0,160.19999999999993 1067.4,158.5999999999999 C 1066.9,157.39999999999986 1070.2,152.19999999999993 1075.2,146.5 C 1081.2,139.70000000000005 1082.9,137.60000000000002 1086.5,132.89999999999998 C 1098.7,117.10000000000002 1104.6,109.69999999999993 1110.9,103.0 C 1118.1000000000001,95.20000000000005 1126.0,85.10000000000002 1126.0,83.69999999999993 C 1126.0,82.69999999999993 1130.2,81.09999999999991 1131.5,81.69999999999993 C 1132.1,81.89999999999998 1136.7,88.29999999999995 1141.8,95.79999999999995 M 1102.4,82.59999999999991 C 1104.8000000000002,83.49999999999989 1104.3000000000002,87.39999999999986 1101.4,90.09999999999991 C 1100.0,91.39999999999986 1094.1000000000001,98.59999999999991 1088.2,106.0 C 1072.3,126.29999999999995 1039.6000000000001,164.0 1038.1000000000001,164.0 C 1037.8000000000002,164.0 1034.8000000000002,161.39999999999998 1031.4,158.19999999999993 C 1028.1000000000001,155.0999999999999 1022.1000000000001,149.5999999999999 1018.0,146.0 C 1014.0,142.39999999999998 1010.2,138.89999999999998 1009.6,138.19999999999993 C 1008.2,136.5999999999999 1006.3000000000001,134.69999999999993 1001.8000000000001,130.5999999999999 C 999.9000000000001,128.89999999999986 994.4000000000001,123.69999999999993 989.6,119.19999999999993 C 979.9,109.89999999999998 979.7,108.69999999999993 987.7,107.59999999999991 C 990.3000000000001,107.29999999999995 994.6,106.29999999999995 997.4000000000001,105.5 C 1000.2,104.70000000000005 1006.6000000000001,103.20000000000005 1011.5,102.0 C 1016.5,100.89999999999998 1023.4,99.29999999999995 1027.0,98.39999999999998 C 1035.0,96.39999999999998 1036.9,96.0 1055.5,92.09999999999991 C 1063.8,90.39999999999986 1073.4,88.29999999999995 1077.0,87.5 C 1080.6,86.60000000000002 1087.1,85.29999999999995 1091.5,84.39999999999998 C 1095.8,83.60000000000002 1099.6,82.69999999999993 1099.9,82.5 C 1100.5,81.89999999999998 1100.5,81.89999999999998 1102.4,82.60000000000002 M 836.5,84.59999999999991 C 840.4,85.39999999999986 845.1,86.49999999999989 847.0,87.0 C 857.9,89.60000000000002 874.0,93.0 875.9000000000001,93.0 C 877.1000000000001,93.0 878.8000000000001,93.39999999999998 879.8000000000001,93.89999999999998 C 880.7,94.39999999999998 887.8000000000001,96.29999999999995 895.5,98.0 C 903.2,99.70000000000005 910.9,101.79999999999995 912.7,102.59999999999991 C 914.4000000000001,103.39999999999986 917.1,103.99999999999989 918.7,104.0 C 920.3000000000001,104.0 923.7,104.70000000000005 926.2,105.5 C 928.7,106.39999999999998 933.6,107.39999999999998 937.1,107.79999999999995 C 946.3000000000001,108.79999999999995 946.1,110.29999999999995 935.8000000000001,120.39999999999998 C 931.3000000000001,124.89999999999998 924.6,131.10000000000002 921.0,134.19999999999993 C 917.4,137.39999999999998 913.8,140.5999999999999 913.0,141.5 C 912.2,142.39999999999998 910.4,144.10000000000002 909.1,145.29999999999995 C 907.9,146.5 903.1,151.19999999999993 898.5,155.69999999999993 C 893.9,160.29999999999995 889.5,163.9999999999999 888.7,164.0 C 887.9000000000001,164.0 884.9000000000001,161.20000000000005 882.1,157.69999999999993 C 879.4,154.29999999999995 870.7,143.5999999999999 862.8000000000001,133.89999999999998 C 854.9000000000001,124.19999999999993 845.6,112.29999999999995 842.1,107.5 C 838.6,102.70000000000005 833.1,95.89999999999998 829.8000000000001,92.39999999999998 C 821.1,83.10000000000002 822.5000000000001,81.39999999999998 836.5000000000001,84.60000000000002 M 809.0,162.0999999999999 C 819.7,164.89999999999986 830.1,167.5999999999999 832.0,168.0 C 833.9,168.39999999999998 840.7,170.20000000000005 847.0,172.0 C 853.3,173.79999999999995 861.0,175.79999999999995 864.0,176.5 C 867.0,177.20000000000005 871.1,178.29999999999995 873.0,178.79999999999995 C 874.9,179.39999999999998 877.8,180.0999999999999 879.3000000000001,180.39999999999998 C 882.4000000000001,181.10000000000002 887.0000000000001,185.5 887.0,187.69999999999993 C 887.0,188.4999999999999 889.0,193.89999999999998 891.6,199.79999999999995 C 898.9,217.19999999999993 905.0,231.0999999999999 908.2,237.89999999999998 C 909.8000000000001,241.39999999999998 912.4000000000001,247.69999999999993 914.0,251.89999999999998 C 915.5,256.1 918.0,262.1 919.5,265.0 C 920.9,268.0 924.6,276.79999999999995 927.7,284.5 C 930.8000000000001,292.20000000000005 933.7,298.9 934.1,299.4 C 935.7,301.1 935.1,303.0 933.0,303.0 C 931.8,303.0 926.8,299.0 920.8000000000001,293.19999999999993 C 909.8000000000001,282.5999999999999 910.3000000000001,283.0999999999999 894.4000000000001,268.4 C 888.4000000000001,262.79999999999995 879.4000000000001,254.19999999999993 874.4000000000001,249.39999999999998 C 811.3000000000001,187.69999999999993 790.0000000000001,167.0999999999999 785.0,162.69999999999993 C 783.9,161.79999999999995 783.0,160.0999999999999 783.0,159.0 C 783.0,155.89999999999998 787.2,156.39999999999998 809.0,162.10000000000002 M 965.5,182.0999999999999 C 996.3,182.19999999999993 1022.2,182.4999999999999 1023.2,182.79999999999995 C 1026.4,183.5999999999999 1026.3,186.89999999999998 1023.0,194.39999999999998 C 1019.9,201.29999999999995 1017.9,205.79999999999995 1014.7,213.0 C 1013.9000000000001,214.89999999999998 1012.9000000000001,217.60000000000002 1012.5,219.0 C 1012.1,220.39999999999998 1010.9,223.10000000000002 1009.9000000000001,225.0 C 1008.8000000000001,226.89999999999998 1008.0000000000001,228.89999999999998 1008.0,229.39999999999998 C 1008.0,229.89999999999998 1007.1,232.10000000000002 1006.1,234.39999999999998 C 1005.0,236.69999999999993 1001.3000000000001,244.79999999999995 997.9000000000001,252.5 C 994.5000000000001,260.20000000000005 991.1000000000001,267.4 990.4000000000001,268.5 C 989.7,269.6 985.7,278.6 981.4000000000001,288.5 C 977.2,298.4 973.0000000000001,307.6 972.0,309.0 C 971.1,310.4 969.3,313.6 968.2,316.19999999999993 C 965.2,322.9999999999999 961.2,322.69999999999993 959.4000000000001,315.6 C 959.0000000000001,314.1 956.1000000000001,307.70000000000005 953.0,301.5 C 949.8,295.20000000000005 946.0,287.0 944.5,283.1 C 943.0,279.20000000000005 941.4,275.80000000000007 940.9000000000001,275.4 C 940.4000000000001,275.1 940.0000000000001,274.0 940.0,272.79999999999995 C 940.0,271.69999999999993 939.3,269.5999999999999 938.5,268.19999999999993 C 937.7,266.69999999999993 935.4,261.4 933.4000000000001,256.5 C 929.8000000000001,247.60000000000002 923.6000000000001,233.70000000000005 920.1,227.0 C 919.1,225.10000000000002 917.5,220.89999999999998 916.6,217.79999999999995 C 915.7,214.69999999999993 914.5,211.79999999999995 914.0,211.5 C 913.4,211.20000000000005 913.0,210.0 913.0,208.89999999999998 C 913.0,206.89999999999998 908.3,195.10000000000002 905.5,189.79999999999995 C 903.9,187.0 903.5,182.79999999999995 904.7,181.5999999999999 C 905.1,181.19999999999993 906.4000000000001,181.0999999999999 907.5,181.39999999999998 C 908.6,181.69999999999993 934.7,182.0 965.5,182.10000000000002"/><path d="M 678.3000000000001,507.79999999999995 C 677.6,508.19999999999993 676.3000000000001,510.4 675.4000000000001,512.5 C 674.5000000000001,514.7 672.6000000000001,518.3 671.1,520.5 C 669.7,522.7 664.2,533.0 659.1,543.5 C 639.5,583.3 633.7,594.6 631.9000000000001,596.9 C 630.8000000000001,598.2 630.0000000000001,599.8 630.0,600.5 C 630.0,601.2 628.7,604.4 627.1,607.5999999999999 C 625.5,610.8 621.1,619.8 617.3000000000001,627.5999999999999 C 607.0000000000001,648.5 604.8000000000001,651.5 597.3000000000001,655.2 C 591.2,658.2 589.1,660.9 592.8000000000001,661.1 C 593.7,661.2 603.1,661.4 613.6,661.6 C 628.6,661.8 633.2,661.6 634.6,660.5 C 637.1,658.7 636.1,658.0 630.3000000000001,656.9 C 624.5000000000001,655.8 621.1,652.0999999999999 621.0,647.0 C 621.0,642.9 633.3,617.4 635.9000000000001,616.2 C 636.8000000000001,615.7 651.2,615.4 667.9000000000001,615.4 L 698.4000000000001,615.5 L 703.7,625.5 C 709.5,636.5 713.3000000000001,647.3 712.5,650.1 C 712.2,651.1 709.6,653.6 706.8000000000001,655.6 C 702.0000000000001,659.1 701.9000000000001,659.4 704.0,660.2 C 706.8,661.2 767.1,661.7 768.8000000000001,660.6 C 770.9000000000001,659.3 770.1,658.1 766.6,657.1 C 760.3000000000001,655.4 754.3000000000001,650.3 750.0,643.2 C 747.8,639.4 746.0,636.0 746.0,635.6 C 746.0,634.9 713.8,569.7 710.6,564.0 C 709.8000000000001,562.6 706.4,555.9 703.0,549.0 C 699.6,542.1 696.0,535.1 695.0,533.5 C 694.0,531.8 692.9,529.4 692.5,528.0 C 692.1,526.6 691.2,524.9 690.6,524.2 C 690.0,523.5 687.7,519.4 685.5,515.2 C 681.4,507.5 680.4,506.4 678.3,507.8 M 668.2,556.7 C 669.2,557.5999999999999 670.0,558.8 670.0,559.4 C 670.0,560.0 672.1,564.5 674.6,569.5 C 677.2,574.4 680.5,581.1 682.1,584.2 C 683.7,587.3 685.4,590.0999999999999 685.9000000000001,590.4 C 686.4000000000001,590.8 687.1000000000001,592.3 687.5,594.0 C 687.8,595.6 689.0,598.1 690.1,599.4 C 691.2,600.8 692.0,603.0 691.8000000000001,604.2 L 691.5,606.5 L 668.5,606.5999999999999 C 655.9,606.7 644.7,606.4 643.8000000000001,605.8 C 642.8000000000001,605.3 642.0000000000001,604.2 642.0,603.2 C 642.0,601.8 652.9,578.5 659.1,566.9 C 660.1,564.9 661.0,562.2 661.0,560.9 C 661.0,558.5 663.6,555.0 665.3000000000001,555.0 C 665.9000000000001,555.0 667.2,555.7 668.2,556.7"/><path d="M 1154.5,508.0 C 1150.1,508.4 1143.6,509.5 1140.0,510.5 C 1136.4,511.4 1131.9,512.6 1130.0,513.0999999999999 C 1120.8,515.3 1107.2,522.0999999999999 1099.7,528.2 C 1086.1000000000001,539.3 1079.1000000000001,550.5 1074.8,567.9 C 1070.7,584.9 1071.3,596.7 1077.2,613.5 C 1083.9,632.4 1103.2,650.9 1123.6000000000001,658.1 C 1143.3000000000002,665.0 1168.4,667.3 1184.4,663.5 C 1213.8000000000002,656.7 1231.0,645.4 1245.8000000000002,623.2 C 1253.0000000000002,612.4 1256.6000000000001,595.5999999999999 1255.1000000000001,579.7 C 1253.0000000000002,557.8 1246.0000000000002,544.8 1226.9,527.8 C 1217.2,519.0999999999999 1198.0,511.19999999999993 1179.8,508.5 C 1169.3999999999999,506.9 1167.2,506.9 1154.5,508.0 M 1177.4,516.5999999999999 C 1186.8000000000002,519.0 1196.9,525.3 1200.8,531.2 C 1201.7,532.5999999999999 1203.3,534.9 1204.3,536.2 C 1207.0,540.0 1212.3,555.7 1213.1000000000001,562.5 C 1213.5000000000002,565.8 1214.4,571.4 1215.0,575.0 C 1216.4,582.5 1215.8,592.5 1213.1000000000001,608.5 C 1208.9,633.4 1200.7,646.7 1185.5,653.5 C 1173.4,658.8 1155.5,659.3 1145.4,654.5 C 1142.5,653.1 1139.7,652.0 1139.2,652.0 C 1137.9,652.0 1129.1000000000001,643.2 1125.9,638.6 C 1124.4,636.6 1122.2,632.4 1121.0,629.2 C 1119.8,626.0999999999999 1118.2,622.0 1117.4,620.2 C 1116.6000000000001,618.4 1116.0,615.5 1116.0,613.7 C 1116.0,611.9 1115.3,606.4 1114.5,601.5 C 1112.6,590.0 1112.6,581.3 1114.5,567.0 C 1117.5,544.8 1128.3,525.3 1140.5,519.9 C 1151.7,515.0 1166.0,513.7 1177.4,516.5999999999999"/><path d="M 1544.3000000000002,507.79999999999995 C 1543.8000000000002,508.19999999999993 1540.5000000000002,514.5999999999999 1537.0,522.0 C 1533.5,529.4 1528.9,538.9 1526.7,543.0 C 1524.5,547.1 1517.6000000000001,560.4 1511.5,572.5 C 1505.3,584.7 1499.8,595.5 1499.2,596.5 C 1498.6000000000001,597.6 1493.2,608.6 1487.2,621.0 C 1481.2,633.4 1475.1000000000001,645.4 1473.7,647.7 C 1470.9,652.1 1463.1000000000001,657.0 1459.0,657.0 C 1457.7,657.0 1457.0,657.7 1457.0,659.0 C 1457.0,660.1 1457.3,661.0 1457.8000000000002,661.0 C 1476.7000000000003,661.5 1501.5000000000002,660.9 1502.4,660.0 C 1503.8000000000002,658.6 1502.0,657.4 1497.0,656.6 C 1495.0,656.3 1492.1,654.9 1490.5,653.4 C 1488.1,651.2 1487.8,650.3 1488.2,646.6 C 1488.6000000000001,643.0 1493.4,631.7 1499.7,619.0 L 1501.5,615.5 L 1532.6000000000001,615.2 C 1556.8000000000002,615.0 1564.0000000000002,615.3 1564.7,616.2 C 1565.3,616.9 1568.7,623.3 1572.4,630.3 C 1578.8000000000002,642.7 1580.9,649.3 1579.3000000000002,651.6 C 1577.8000000000002,653.7 1570.7000000000003,658.0 1568.8000000000002,658.0 C 1567.7000000000003,658.0 1567.0000000000002,658.5 1567.2,659.2 C 1567.6000000000001,660.2 1575.3,660.6 1599.6000000000001,661.0 C 1630.0000000000002,661.5 1636.0000000000002,661.2 1636.0,659.2 C 1636.0,658.7 1634.0,657.5 1631.6000000000001,656.6 C 1623.4,653.5 1618.5000000000002,647.9 1612.7,635.6 C 1608.2,625.9 1599.2,607.9 1583.4,577.0 C 1581.1000000000001,572.3 1575.1000000000001,560.4 1570.2,550.5 C 1565.2,540.6 1559.6000000000001,529.6 1557.6000000000001,526.0 C 1555.6000000000001,522.4 1552.8000000000002,517.2 1551.5,514.3 C 1549.1,509.09999999999997 1546.3,506.59999999999997 1544.3,507.79999999999995 M 1536.1000000000001,557.7 C 1536.7,559.3 1538.2,562.7 1539.5,565.5 C 1540.8,568.2 1543.5,574.1 1545.6000000000001,578.5 C 1547.6000000000001,582.9 1549.9,587.2 1550.5,588.0 C 1551.2,588.8 1552.1,590.6 1552.5,592.0 C 1552.9,593.3 1554.2,595.6 1555.2,597.0999999999999 C 1556.5,598.8 1557.0,600.9 1556.8000000000002,603.0 L 1556.5,606.3 L 1532.9,606.7 C 1506.1000000000001,607.0999999999999 1505.3000000000002,606.9 1508.6000000000001,600.8 C 1513.3000000000002,591.8 1528.0000000000002,561.7 1528.0,561.0 C 1528.0,555.1 1534.1,552.7 1536.1,557.7"/><path d="M 276.5,508.9 C 265.8,510.5 247.7,517.3 238.0,523.3 C 223.1,532.5 211.0,547.3 206.3,561.9 C 203.10000000000002,571.9 202.0,593.2 204.3,603.0 C 207.20000000000002,615.4 213.3,627.6 221.10000000000002,636.3 C 225.3,641.0 239.60000000000002,652.0 241.60000000000002,652.0 C 242.00000000000003,652.0 245.10000000000002,653.3 248.4,654.9 C 255.70000000000002,658.5 269.7,662.5999999999999 279.40000000000003,664.1 C 292.6,666.2 312.3,664.4 329.6,659.6 C 336.0,657.8 350.3,650.9 355.1,647.3 C 367.8,637.7 366.3,639.3 375.5,625.7 C 384.0,613.3 387.8,596.5999999999999 385.90000000000003,580.8 C 383.70000000000005,562.4 382.6,559.0 375.40000000000003,548.3 C 371.8,542.9 367.6,537.1999999999999 366.20000000000005,535.7 C 357.50000000000006,526.3 340.30000000000007,516.7 323.70000000000005,511.79999999999995 C 314.6,509.09999999999997 311.90000000000003,508.69999999999993 297.5,508.5 C 288.7,508.3 279.3,508.5 276.5,508.9 M 307.3,516.5 C 321.40000000000003,520.2 331.1,527.9 336.6,540.0 C 340.70000000000005,548.8 341.8,552.5 343.5,564.5 C 346.7,586.0 344.2,615.2 338.0,628.5 C 337.5,629.6 336.4,632.1 335.5,634.0 C 328.7,649.3 310.7,659.1 291.7,657.7 C 274.3,656.4 264.5,650.8 256.5,638.0 C 248.6,625.4 244.0,605.9 244.0,585.5 C 244.1,554.7 252.9,531.8 268.8,521.7 C 278.2,515.7 295.5,513.4 307.3,516.5"/><path d="M 1846.0,509.7 C 1845.4,510.7 1843.5,514.3 1841.7,517.7 C 1839.9,521.0999999999999 1835.4,529.5999999999999 1831.5,536.7 C 1827.7,543.7 1824.3,549.9 1824.1000000000001,550.5 C 1823.9,551.0 1820.3000000000002,558.7 1816.0,567.5 C 1811.7,576.3 1807.9,584.5 1807.5,585.7 C 1807.2,587.0 1806.5,588.0 1806.1000000000001,588.0 C 1805.5000000000002,588.0 1796.1000000000001,606.4 1789.6000000000001,620.5 C 1782.9,634.8 1780.3000000000002,640.0 1777.2,645.2 C 1773.8,650.9 1768.4,655.4 1763.5,656.6 C 1760.9,657.2 1759.2,659.5 1760.3000000000002,660.7 C 1761.4,661.7 1804.1000000000001,661.3 1805.2,660.2 C 1806.8,658.6 1805.2,657.0 1802.0,657.0 C 1797.6,657.0 1792.3,654.0 1791.0,650.9 C 1789.3,647.0 1790.6,640.5999999999999 1794.5,633.5 C 1796.3,630.2 1798.5,625.4 1799.5,622.8 C 1802.4,614.8 1800.8,615.2 1834.5,615.0 C 1851.0,614.9 1865.0,614.9 1865.7,614.9 C 1866.3,615.0 1867.2,616.0 1867.6000000000001,617.2 C 1867.9,618.5 1870.1000000000001,623.3 1872.4,628.0 C 1878.8000000000002,640.9 1881.3000000000002,647.7 1880.6000000000001,650.2 C 1880.0000000000002,652.6 1872.4,658.0 1869.7,658.0 C 1867.6000000000001,658.0 1866.6000000000001,659.7 1868.2,660.6 C 1868.8,661.0 1882.7,661.3 1898.9,661.2 C 1915.2,661.1 1930.4,661.0 1932.8000000000002,661.0 C 1938.6000000000001,661.0 1938.2000000000003,659.1 1931.4,655.6 C 1923.9,651.7 1922.1000000000001,648.7 1899.5,603.5999999999999 C 1889.2,583.2 1880.2,565.4 1879.4,564.0 C 1878.7,562.6 1874.9,555.0 1871.0,547.0 C 1861.1,526.7 1852.0,509.6 1850.7,508.79999999999995 C 1848.7,507.49999999999994 1847.1000000000001,507.9 1846.0,509.69999999999993 M 1838.1000000000001,559.7 C 1842.3000000000002,569.5999999999999 1857.2,598.9 1858.6000000000001,600.0 C 1860.3000000000002,601.5 1860.4,604.6 1858.8000000000002,605.7 C 1858.1000000000001,606.0999999999999 1847.2000000000003,606.3 1834.5,606.0999999999999 C 1808.6,605.8 1806.7,605.4 1810.8000000000002,600.3 C 1813.7000000000003,596.7 1827.0000000000002,569.0 1831.0,558.2 C 1832.9,553.3 1835.7,553.9 1838.1,559.7"/><path d="M 63.800000000000004,510.79999999999995 C 47.2,510.99999999999994 44.900000000000006,511.19999999999993 44.2,512.8 C 43.7,513.6999999999999 43.0,520.6999999999999 42.6,528.3 C 42.0,542.3 42.6,546.0 45.5,546.0 C 46.9,546.0 47.4,544.8 48.400000000000006,539.0 C 49.300000000000004,533.8 57.00000000000001,525.5 63.900000000000006,522.2 C 69.5,519.5 69.60000000000001,519.5 97.4,519.2 C 112.80000000000001,519.0 126.4,519.0999999999999 127.7,519.5 C 130.5,520.2 130.7,522.6 128.1,523.9 C 127.1,524.5 125.3,526.4 124.10000000000001,528.2 C 122.9,530.0 120.9,533.0999999999999 119.5,535.0 C 114.8,541.7 112.9,544.5 109.0,550.5 C 106.8,553.8 103.8,558.2 102.30000000000001,560.2 C 100.80000000000001,562.3 97.10000000000001,567.4 94.10000000000001,571.7 C 88.30000000000001,580.0 85.4,583.8 81.5,588.3 C 80.1,589.8 79.0,591.5 79.0,592.0999999999999 C 79.0,592.7 77.0,595.5 74.60000000000001,598.3 C 72.2,601.2 69.2,605.1 67.9,607.2 C 66.60000000000001,609.2 61.800000000000004,616.0999999999999 57.300000000000004,622.5 C 52.7,628.9 48.6,635.0 48.0,636.0 C 46.3,639.1 36.9,651.3 34.300000000000004,653.8 C 32.6,655.3 32.00000000000001,656.9 32.2,658.8 L 32.5,661.5 L 104.10000000000001,661.8 C 187.4,662.1 178.5,663.5 180.0,649.4 C 180.5,644.5 181.6,637.3 182.5,633.5 C 184.4,624.5 184.5,619.0 182.60000000000002,619.0 C 180.8,619.0 179.8,620.4 177.10000000000002,627.0 C 172.50000000000003,637.9 164.10000000000002,644.9 149.6,650.1 L 140.70000000000002,653.2 L 112.10000000000001,653.9 C 96.4,654.3 82.7,654.2 81.80000000000001,653.8 C 79.30000000000001,652.6 79.60000000000001,648.7 82.4,646.1 C 83.7,644.9 86.9,640.7 89.60000000000001,636.7 C 92.30000000000001,632.8 98.60000000000001,624.0999999999999 103.5,617.3 C 108.5,610.6 114.5,602.1 117.0,598.5 C 119.5,594.8 122.9,590.1 124.5,587.9 C 126.2,585.8 130.0,580.5999999999999 133.0,576.4 C 136.0,572.2 139.6,567.4 141.0,565.7 C 142.4,563.9 144.4,561.4 145.3,560.0 C 146.3,558.6 148.3,555.9 149.8,553.9 C 152.4,550.5 161.70000000000002,538.0 167.70000000000002,529.7 C 169.20000000000002,527.5999999999999 171.4,524.9 172.60000000000002,523.7 C 176.8,519.0999999999999 180.3,512.9 179.3,511.9 C 178.3,510.9 104.50000000000001,510.2 63.80000000000001,510.79999999999995"/><path d="M 410.20000000000005,511.0 C 405.50000000000006,511.7 405.90000000000003,513.1 411.8,516.0 C 414.6,517.4 418.0,519.6 419.3,521.0 C 420.7,522.4 422.5,524.0 423.3,524.7 C 424.5,525.7 424.8,534.0 424.90000000000003,581.2 C 425.1,644.1 424.8,648.9 419.70000000000005,653.3 C 417.90000000000003,654.8 414.6,656.5 412.20000000000005,657.1 C 407.80000000000007,658.3 406.30000000000007,659.4 407.90000000000003,660.5 C 409.40000000000003,661.4 451.40000000000003,661.5 452.8,660.6 C 454.7,659.4 453.3,658.2 448.8,657.0 C 444.2,655.7 438.40000000000003,652.2 437.3,650.0 C 436.40000000000003,648.3 435.8,549.8 436.70000000000005,546.2 C 437.40000000000003,543.0 439.30000000000007,543.5 443.1,547.7 C 444.8,549.8 456.0,561.5999999999999 467.90000000000003,574.0 C 494.1,601.3 493.50000000000006,600.5 498.90000000000003,606.5999999999999 C 502.90000000000003,611.0 523.6,632.9 539.5,649.5 C 542.8,652.9 547.2,657.6 549.3000000000001,659.9 C 553.1,664.0999999999999 557.1,665.3 558.7,662.7 C 559.1,662.1 559.5,630.7 559.6,593.2 C 559.8000000000001,526.9 559.8000000000001,524.7 561.7,522.2 C 564.5,518.4 569.8000000000001,515.0 573.0,515.0 C 575.8,515.0 578.8,512.6 577.2,511.59999999999997 C 575.7,510.7 534.4000000000001,510.7 532.7,511.59999999999997 C 531.4000000000001,512.4 532.3000000000001,513.0999999999999 537.4,515.4 C 542.0,517.3 544.6,519.2 546.4,521.8 L 548.9,525.5 L 549.0,565.0 C 549.1,586.7 549.1,605.1 549.1,605.7 C 548.9,609.0999999999999 544.7,606.0999999999999 536.5,596.8 C 531.5,591.2 525.0,583.9000000000001 522.0,580.5 C 518.9,577.2 513.1,570.7 509.0,566.0 C 504.9,561.4 500.2,556.2 498.5,554.5 C 489.6,545.3 465.2,518.4 463.70000000000005,515.9 C 462.50000000000006,514.0999999999999 460.50000000000006,512.7 458.20000000000005,512.0999999999999 C 454.20000000000005,510.99999999999994 415.6,510.2 410.20000000000005,510.99999999999994"/><path d="M 892.5,511.09999999999997 C 877.7,511.4 865.3,511.79999999999995 865.0,511.9 C 864.8,511.9 867.7,513.5 871.6,515.4 C 877.3000000000001,518.0999999999999 878.9,519.4 879.8000000000001,521.9 C 881.3000000000001,526.0 881.6,646.4 880.2,650.0 C 879.1,652.8 870.0,658.0 866.2,658.0 C 865.0,658.0 864.0,658.6 864.0,659.4 C 864.0,661.4 876.9,662.0 918.0,662.0 C 955.3,662.0 964.1,661.3 984.0,657.0 C 1005.8,652.2 1025.3,638.2 1033.4,621.5 C 1039.9,608.1 1040.4,605.9 1040.4,586.0 C 1040.3000000000002,571.4 1040.0,566.7 1038.7,563.5 C 1037.9,561.3 1036.2,557.1 1035.2,554.3 C 1032.9,548.3 1030.5,544.9 1023.5,537.5999999999999 C 1007.5,521.0 989.0,513.7 956.5,511.0 C 943.7,510.0 935.3,510.0 892.5,511.1 M 949.2,519.0999999999999 C 964.6,520.8 973.1,524.4 981.5,532.8 C 994.3,545.5999999999999 1000.2,562.8 1000.3000000000001,588.0 C 1000.4000000000001,610.2 994.8000000000001,625.8 981.6,639.7 C 977.8000000000001,643.7 974.2,647.0 973.6,647.0 C 973.0,647.0 970.8000000000001,647.9 968.7,649.0 C 964.0,651.5 947.7,655.0 940.6,655.0 C 934.0,655.0 919.8000000000001,652.3 918.3000000000001,650.7 C 916.7,649.0 916.7,646.5 916.8000000000001,580.7 C 917.0000000000001,511.4 915.7,518.0 930.0,518.0 C 934.9,518.0 943.5,518.5 949.2,519.1"/><path d="M 1305.3000000000002,510.7 C 1291.2000000000003,510.9 1282.0000000000002,511.4 1282.0,512.0 C 1282.0,512.5 1283.8,513.9 1286.0,515.0 C 1288.2,516.1 1291.1,518.7 1292.5,520.8 L 1295.0,524.5 L 1295.0,584.7 C 1295.1,636.4 1294.9,645.3 1293.6000000000001,647.8 C 1291.5000000000002,651.8 1285.4,657.0 1281.9,657.7 C 1278.6000000000001,658.3 1277.4,659.5 1279.1000000000001,660.6 C 1280.5000000000002,661.4 1346.9,661.2 1348.3000000000002,660.3 C 1349.7000000000003,659.4 1346.0000000000002,657.0 1343.3000000000002,657.0 C 1340.1000000000001,657.0 1333.1000000000001,652.2 1332.5,649.6 C 1332.2,648.4 1332.1,634.9 1332.2,619.5 L 1332.5,591.5 L 1338.4,591.2 C 1343.7,590.9 1344.6000000000001,591.2 1347.2,593.5999999999999 C 1348.7,595.2 1352.6000000000001,600.2 1355.7,604.9 C 1358.8,609.7 1363.9,616.5999999999999 1367.0,620.5 C 1370.1,624.3 1375.9,631.9 1379.9,637.3 C 1383.9,642.6 1389.2,649.1 1391.6000000000001,651.7 C 1394.0000000000002,654.2 1396.0000000000002,656.7 1396.0,657.1 C 1396.0,657.6 1397.3,658.6 1399.0,659.5 C 1402.9,661.5 1445.4,662.7 1447.6000000000001,660.9 C 1449.9,659.0 1449.3000000000002,658.4 1442.8000000000002,656.0 C 1437.5000000000002,654.2 1435.2000000000003,652.5 1428.7,645.9 C 1422.1000000000001,639.0999999999999 1413.5,628.4 1404.2,615.5999999999999 C 1403.0,613.9 1400.4,610.5 1398.5,608.0 C 1396.6,605.5 1394.1,601.7 1392.9,599.5 C 1391.7,597.3 1389.6000000000001,594.5 1388.3000000000002,593.2 C 1384.3000000000002,589.5 1385.0000000000002,588.7 1397.4,584.4 C 1411.2,579.7 1419.7,570.7 1422.9,557.5999999999999 C 1426.0,544.9 1417.7,527.8 1405.1000000000001,521.0999999999999 C 1389.3000000000002,512.7 1373.5000000000002,509.9 1345.0,510.2 C 1335.9,510.4 1318.0,510.59999999999997 1305.3,510.7 M 1355.0,519.3 C 1368.6,520.0 1378.2,526.9 1382.0,538.9 C 1384.3,546.2 1384.5,551.2 1382.6000000000001,559.3 C 1378.6000000000001,575.9 1368.1000000000001,582.6999999999999 1345.3000000000002,583.5999999999999 C 1337.7000000000003,583.9 1333.0000000000002,583.7 1332.6000000000001,583.0999999999999 C 1331.7,581.8 1331.7,522.1999999999999 1332.6000000000001,520.9 C 1333.7,519.0999999999999 1337.1000000000001,518.3 1342.4,518.7 C 1345.2,518.8 1350.9,519.0999999999999 1355.0,519.3"/><path d="M 1630.2,511.29999999999995 C 1629.7,511.99999999999994 1629.0,519.3 1628.7,527.5999999999999 C 1628.2,539.3 1628.4,543.2 1629.4,544.5 C 1630.7,546.2 1630.8000000000002,546.2 1632.3000000000002,543.9 C 1633.1000000000001,542.5999999999999 1634.4,539.5999999999999 1635.1000000000001,537.2 C 1636.4,532.9 1643.2,524.0 1645.3000000000002,524.0 C 1645.9,524.0 1647.4,523.0 1648.6000000000001,521.9 C 1650.7,519.9 1652.3000000000002,519.7 1666.8000000000002,519.2 C 1676.2000000000003,518.9 1682.9,519.0999999999999 1683.3000000000002,519.7 C 1683.6000000000001,520.2 1684.0000000000002,549.5 1684.2,584.8 L 1684.5,648.9 L 1681.0,652.5 C 1679.0,654.5 1675.7,656.6 1673.1000000000001,657.4 L 1668.5,658.7 L 1671.2,659.8 C 1674.7,661.2 1733.4,662.1 1737.3000000000002,660.7 C 1742.0000000000002,659.1 1740.0000000000002,657.0 1733.6000000000001,657.0 C 1731.8000000000002,657.0 1728.4,655.8 1725.8000000000002,654.1 C 1721.3000000000002,651.2 1721.2000000000003,651.1 1720.5,644.4 C 1720.1,640.5999999999999 1719.9,611.8 1720.1000000000001,580.5 C 1720.3000000000002,533.4 1720.6000000000001,523.1 1721.8000000000002,521.0999999999999 C 1723.2000000000003,518.8 1723.4,518.8 1736.4,519.2 C 1747.5,519.5999999999999 1750.4,520.0999999999999 1755.3000000000002,522.2 C 1762.2000000000003,525.0999999999999 1769.3000000000002,532.5999999999999 1770.9,538.7 C 1772.4,544.0999999999999 1774.5,545.9 1776.0,543.0999999999999 C 1777.0,541.0999999999999 1776.5,512.7 1775.4,510.9 C 1775.2,510.5 1742.6000000000001,510.2 1703.1000000000001,510.2 C 1649.1000000000001,510.2 1630.9,510.4 1630.2,511.3"/><path d="M 768.5,779.7 C 760.6,780.0 758.2,780.4 757.3000000000001,781.7 C 755.6,783.9 755.7,784.5 757.5,786.3 C 758.6,787.4 761.8,787.8 770.7,787.9 C 777.3000000000001,787.9 782.8000000000001,788.4 783.4000000000001,789.0 C 784.1000000000001,789.7 784.6000000000001,801.7 784.7,822.2 C 784.9000000000001,839.9 785.2,854.5 785.4000000000001,854.7 C 786.7,856.0 793.7,856.1 794.7,854.9 C 795.3000000000001,854.0 796.0,842.0 796.3000000000001,822.1 C 796.7,800.8 797.3000000000001,790.3 798.1,789.4 C 798.9,788.4 802.1,788.0 810.4000000000001,788.0 C 817.8000000000001,788.0 822.0000000000001,787.6 822.8000000000001,786.8 C 824.6,785.0 824.2,781.2 822.1,780.0 C 820.3000000000001,779.1 794.3000000000001,778.9 768.5,779.7"/><path d="M 1006.0,779.9 L 1003.5,780.6 L 1003.7,817.5 C 1003.9000000000001,843.6 1004.3000000000001,854.6 1005.1,855.1 C 1005.7,855.5 1017.5,855.8 1031.2,855.9 C 1057.0,856.1 1059.0,855.8 1059.0,852.0 C 1059.0,848.5 1056.7,848.0 1038.9,847.9 C 1029.3000000000002,847.9 1020.0000000000001,847.4 1018.3000000000001,846.8 L 1015.0,845.8 L 1015.0,813.5 C 1015.0,795.7 1014.7,780.9 1014.3000000000001,780.7 C 1012.5000000000001,779.7 1008.3000000000001,779.3 1006.0000000000001,779.9"/><path d="M 1118.7,780.1 C 1117.0,781.1 1116.9,783.3 1117.0,816.3 C 1117.2,855.5 1117.3,856.0 1123.4,856.0 C 1130.1000000000001,856.0 1130.0,856.4 1130.0,816.7 C 1130.0,782.5 1129.9,781.0 1128.1000000000001,780.0 C 1125.6000000000001,778.7 1121.0000000000002,778.8 1118.7,780.1"/><path d="M 687.1,781.4 C 686.2,782.4 686.0,792.4 686.2,818.0 C 686.5,851.5 686.6,853.2 688.4000000000001,854.6 C 690.9000000000001,856.4 694.1000000000001,856.4 696.6,854.6 C 698.4,853.2 698.5,851.6 698.5,818.3 C 698.5,799.2 698.2,782.7 697.7,781.7 C 696.7,779.6 688.8000000000001,779.3 687.1,781.4"/><path d="M 901.2,781.2 C 900.5,781.9 900.0,782.8 900.0,783.2 C 900.0,783.7 897.1,789.1 893.5,795.4 C 890.0,801.6 885.9,809.3 884.4000000000001,812.4 C 883.0000000000001,815.5 881.4000000000001,818.3 880.9000000000001,818.6 C 880.4000000000001,818.9 880.0000000000001,819.8 880.0,820.6 C 880.0,821.4 878.1,825.5 875.8000000000001,829.7 C 863.4000000000001,851.8 862.2,855.0 866.4000000000001,855.8 C 870.0000000000001,856.5 872.8000000000001,853.8 876.5,846.1 C 878.5,841.9 880.5,837.8 880.9000000000001,837.0 C 882.1000000000001,834.8 920.5000000000001,833.7 923.8000000000001,835.8 C 925.0000000000001,836.6 926.0000000000001,837.7 926.0,838.4 C 926.0,839.0 926.9,841.2 928.0,843.3 C 929.1,845.3 930.0,847.7 930.0,848.6 C 930.0,851.1 935.6,856.0 938.3000000000001,856.0 C 942.4000000000001,856.0 944.0000000000001,854.9 944.0,852.3 C 944.0,849.8 926.4,814.0 912.9000000000001,789.1 C 911.9000000000001,787.2 910.6000000000001,784.3 910.1,782.8 C 909.3000000000001,780.5 908.5,780.0 905.8000000000001,780.0 C 903.9000000000001,780.0 901.9000000000001,780.5 901.2,781.2 M 906.1,797.7 C 907.9,802.2 913.8000000000001,814.2 916.2,818.2 C 920.3000000000001,824.9 917.3000000000001,826.7 901.5,826.9 C 888.2,827.0 885.7,825.9 888.6,820.9 C 889.3000000000001,819.6 892.3000000000001,813.8 895.1,808.0 C 897.9,802.2 900.6,796.9 901.2,796.2 C 902.9000000000001,794.2 905.0,794.8 906.1,797.7"/><path d="M 1221.2,781.2 C 1220.7,781.9 1219.9,783.6 1219.5,785.0 C 1219.1,786.4 1217.2,790.0 1215.4,793.1 C 1213.5,796.2 1210.8000000000002,801.4 1209.3,804.6 C 1207.8,807.9 1205.5,812.5 1204.0,815.0 C 1202.6,817.5 1200.6,821.5 1199.7,824.0 C 1198.8,826.5 1195.1000000000001,833.6 1191.5,839.9 C 1187.9,846.2 1185.0,852.2 1185.0,853.2 C 1185.0,855.5 1189.4,856.6 1192.5,855.2 C 1193.9,854.6 1195.2,852.8 1195.6000000000001,851.3 C 1196.0000000000002,849.8 1197.1000000000001,847.4 1198.0,846.0 C 1199.0,844.6 1200.3,841.8 1200.9,839.8 C 1201.9,836.7 1202.7,836.0 1205.3,835.6 C 1211.6,834.6 1242.3,834.1 1244.4,835.0 C 1245.9,835.5 1247.5,838.0 1249.4,842.7 C 1253.7,853.4 1254.3000000000002,854.4 1257.7,855.3 C 1261.4,856.4 1265.6000000000001,855.6 1266.3000000000002,853.7 C 1266.7000000000003,852.5 1259.1000000000001,836.4 1245.8000000000002,810.5 C 1237.7000000000003,794.8 1234.7000000000003,788.8 1232.8000000000002,784.7 C 1230.7000000000003,780.2 1230.4,780.0 1226.4,780.0 C 1224.1000000000001,780.0 1221.8000000000002,780.6 1221.2,781.2 M 1227.7,799.1 C 1228.3,801.1 1231.4,807.0 1234.5,812.4 C 1237.6,817.8 1240.0,822.9 1239.8000000000002,823.8 C 1239.3000000000002,826.2 1235.9,826.8 1222.9,826.9 C 1206.8000000000002,827.0 1206.9,827.3 1215.1000000000001,811.2 C 1224.0000000000002,793.4 1225.3000000000002,792.2 1227.7,799.1"/></svg>