<svg width="420" height="92" viewBox="0 0 420 92" fill="none" xmlns="http://www.w3.org/2000/svg">
  <g fill="#FDFBF6">
    <path d="M45.684 6 63 15.768 68.792 31 57.536 51.43 36.751 62 19.39 31 25.208 15.768 45.684 6Zm0 5.685-14.85 8.43-3.566 9.352 8.12 14.49 10.296-16.227 13.766 1.455 2.42-6.78-16.186-10.72Zm7.853 36.11 7.68-13.658-11.704 1.322 4.024 12.336Zm-16.278-2.41 4.338-13.438-12.02-1.256 7.682 14.694Zm9.047 7.592 3.85-10.973-8.07-1.124 4.22 12.097Zm1.257-21.687 9.994-1.058-9.994-6.615-9.994 6.615 9.994 1.058Z"/>
    <text x="92" y="52" font-family="Cinzel, 'Cormorant Garamond', serif" font-size="28" font-weight="500" letter-spacing="3.5" fill="#FDFBF6">ZONA DORATA</text>
    <text x="92" y="78" font-family="Cinzel, 'Cormorant Garamond', serif" font-size="9" font-weight="400" letter-spacing="3" fill="#FDFBF6">MAISON · MILANO</text>
  </g>
</svg>